<svg width="18" height="18" viewBox="0 0 18 18" fill="none" xmlns="http://www.w3.org/2000/svg">
<path d="M8.97436 0C10.1644 0 11.3058 0.473024 12.1473 1.31501C12.9888 2.157 13.4615 3.29898 13.4615 4.48973C13.4615 5.68048 12.9888 6.82246 12.1473 7.66445C11.3058 8.50644 10.1644 8.97946 8.97436 8.97946C7.78428 8.97946 6.64295 8.50644 5.80144 7.66445C4.95993 6.82246 4.48718 5.68048 4.48718 4.48973C4.48718 3.29898 4.95993 2.157 5.80144 1.31501C6.64295 0.473024 7.78428 0 8.97436 0ZM8.97436 2.24487C8.37932 2.24487 7.80866 2.48138 7.3879 2.90237C6.96715 3.32336 6.73077 3.89436 6.73077 4.48973C6.73077 5.08511 6.96715 5.6561 7.3879 6.07709C7.80866 6.49808 8.37932 6.7346 8.97436 6.7346C9.56939 6.7346 10.1401 6.49808 10.5608 6.07709C10.9816 5.6561 11.2179 5.08511 11.2179 4.48973C11.2179 3.89436 10.9816 3.32336 10.5608 2.90237C10.1401 2.48138 9.56939 2.24487 8.97436 2.24487ZM8.97436 10.1019C11.9695 10.1019 17.9487 11.5947 17.9487 14.5916V17.9589H0V14.5916C0 11.5947 5.97917 10.1019 8.97436 10.1019ZM8.97436 12.2345C5.64263 12.2345 2.13141 13.8733 2.13141 14.5916V15.8263H15.8173V14.5916C15.8173 13.8733 12.3061 12.2345 8.97436 12.2345Z" fill="#212121"/>
</svg>
